<?xml version="1.0" encoding="iso-8859-1"?>
<!-- Generator: Adobe Illustrator 21.0.0, SVG Export Plug-In . SVG Version: 6.00 Build 0)  -->
<svg xmlns="http://www.w3.org/2000/svg" xmlns:xlink="http://www.w3.org/1999/xlink" version="1.1" id="Capa_1" x="0px" y="0px" viewBox="0 0 512 512" style="enable-background:new 0 0 512 512;" xml:space="preserve" width="512" height="512">
<g>
	<path style="fill:#E1E4F9;" d="M121.5,266.059h-30V446c0,8.284,6.716,15,15,15h50v-30h-35V266.059z"/>
	<path style="fill:#D6DAF6;" d="M390.5,266.059V431h-35v30h50c8.284,0,15-6.716,15-15V266.059H390.5z"/>
	<path style="fill:#78777F;" d="M329.5,367v20h-30v-20c0-24.26-19.74-44-44-44s-44,19.74-44,44v20h-30v-20c0-40.8,33.2-74,74-74   S329.5,326.2,329.5,367z"/>
	<path style="fill:#464550;" d="M329.5,367v20h-30v-20c0-24.26-19.74-44-44-44v-30C296.3,293,329.5,326.2,329.5,367z"/>
	<path style="fill:#78777F;" d="M226.5,271.059h-210c-8.284,0-15-6.742-15-15.059V15.059C1.5,6.742,8.216,0,16.5,0h210   c8.284,0,15,6.742,15,15.059V256C241.5,264.317,234.784,271.059,226.5,271.059z"/>
	<path style="fill:#3C3A41;" d="M1.5,135.529V256c0,8.317,6.716,15.059,15,15.059h210c8.284,0,15-6.742,15-15.059V135.529H1.5z"/>
	<path style="fill:#464550;" d="M495.5,271.059h-210c-8.284,0-15-6.742-15-15.059V15.059C270.5,6.742,277.216,0,285.5,0h210   c8.284,0,15,6.742,15,15.059V256C510.5,264.317,503.784,271.059,495.5,271.059z"/>
	<path style="fill:#2B292C;" d="M270.5,135.529V256c0,8.317,6.716,15.059,15,15.059h210c8.284,0,15-6.742,15-15.059V135.529H270.5z"/>
	<path style="fill:#FEB655;" d="M106.5,90.353h-31c-8.284,0-15-6.742-15-15.059s6.716-15.059,15-15.059h31   c8.284,0,15,6.742,15,15.059S114.784,90.353,106.5,90.353z"/>
	<ellipse style="fill:#16B7BD;" cx="166.5" cy="75.294" rx="15" ry="15.059"/>
	<path style="fill:#FEB655;" d="M106.5,210.824h-31c-8.284,0-15-6.742-15-15.059s6.716-15.059,15-15.059h31   c8.284,0,15,6.742,15,15.059S114.784,210.824,106.5,210.824z"/>
	<ellipse style="fill:#16B7BD;" cx="166.5" cy="195.765" rx="15" ry="15.059"/>
	<path style="fill:#FD9A2B;" d="M375.5,90.353h-30c-8.284,0-15-6.742-15-15.059s6.716-15.059,15-15.059h30   c8.284,0,15,6.742,15,15.059S383.784,90.353,375.5,90.353z"/>
	<ellipse style="fill:#139DA4;" cx="435.5" cy="75.294" rx="15" ry="15.059"/>
	<path style="fill:#FD9A2B;" d="M375.5,210.824h-30c-8.284,0-15-6.742-15-15.059s6.716-15.059,15-15.059h30   c8.284,0,15,6.742,15,15.059S383.784,210.824,375.5,210.824z"/>
	<ellipse style="fill:#139DA4;" cx="435.5" cy="195.765" rx="15" ry="15.059"/>
	<path style="fill:#FEB655;" d="M345.5,382h-179c-8.284,0-15,6.716-15,15v100c0,8.284,6.716,15,15,15h179c8.284,0,15-6.716,15-15   V397C360.5,388.716,353.784,382,345.5,382z"/>
	<path style="fill:#FD9A2B;" d="M345.5,382h-90v130h90c8.284,0,15-6.716,15-15V397C360.5,388.716,353.784,382,345.5,382z"/>
	<g>
		<path style="fill:#F0725F;" d="M255.5,482c-8.284,0-15-6.716-15-15v-10c0-8.284,6.716-15,15-15s15,6.716,15,15v10    C270.5,475.284,263.784,482,255.5,482z"/>
	</g>
	<path style="fill:#EA3D2C;" d="M255.5,442v40c8.284,0,15-6.716,15-15v-10C270.5,448.716,263.784,442,255.5,442z"/>
</g>















</svg>
